<?xml version="1.0" encoding="UTF-8" standalone="no"?>
<!-- Uploaded to: SVG Repo, www.svgrepo.com, Generator: SVG Repo Mixer Tools -->

<svg
   fill="#000000"
   version="1.1"
   id="Capa_1"
   width="512"
   height="512"
   viewBox="0 0 62.73472 62.73472"
   xml:space="preserve"
   sodipodi:docname="debugme.svg"
   inkscape:version="1.4 (86a8ad7, 2024-10-11)"
   inkscape:export-filename="debugme.png"
   inkscape:export-xdpi="96"
   inkscape:export-ydpi="96"
   xmlns:inkscape="http://www.inkscape.org/namespaces/inkscape"
   xmlns:sodipodi="http://sodipodi.sourceforge.net/DTD/sodipodi-0.dtd"
   xmlns="http://www.w3.org/2000/svg"
   xmlns:svg="http://www.w3.org/2000/svg"><defs
   id="defs3" /><sodipodi:namedview
   id="namedview3"
   pagecolor="#ffffff"
   bordercolor="#000000"
   borderopacity="0.25"
   inkscape:showpageshadow="2"
   inkscape:pageopacity="0.0"
   inkscape:pagecheckerboard="0"
   inkscape:deskcolor="#d1d1d1"
   inkscape:zoom="0.34162096"
   inkscape:cx="247.35016"
   inkscape:cy="466.89173"
   inkscape:window-width="1920"
   inkscape:window-height="991"
   inkscape:window-x="-9"
   inkscape:window-y="-9"
   inkscape:window-maximized="1"
   inkscape:current-layer="Capa_1" />
<g
   id="g3"
   transform="matrix(0.45000459,0,0,0.45000459,9.312185,9.31196)"
   style="fill:#000000;fill-opacity:1;stroke:#ffffff;stroke-width:2.17827;stroke-linecap:round;stroke-linejoin:round;stroke-dasharray:none;stroke-opacity:1">
	<g
   id="g2"
   style="fill:#000000;fill-opacity:1;stroke:#ffffff;stroke-width:2.17827;stroke-linecap:round;stroke-linejoin:round;stroke-dasharray:none;stroke-opacity:1">
		<path
   d="m 49.011,8.689 c -9.983,0 -18.541,6.61 -22.158,16.012 H 71.168 C 67.553,15.3 58.994,8.689 49.011,8.689 Z"
   id="path1"
   style="fill:#000000;fill-opacity:1;stroke:#ffffff;stroke-width:2.17827;stroke-linecap:round;stroke-linejoin:round;stroke-dasharray:none;stroke-opacity:1" />
		<path
   d="M 93.357,48.938 H 79.496 c 0.773,-3.128 1.237,-6.423 1.348,-9.83 4.94,-2.967 10.617,-8.168 12.028,-16.795 0.416,-2.544 -1.31,-4.942 -3.853,-5.357 -2.545,-0.414 -4.939,1.31 -5.356,3.851 -0.759,4.64 -3.723,7.724 -6.633,9.696 H 21.009 c -2.915,-1.974 -5.892,-5.058 -6.65,-9.696 -0.416,-2.542 -2.808,-4.265 -5.357,-3.851 -2.543,0.416 -4.268,2.813 -3.852,5.357 1.411,8.626 7.087,13.828 12.028,16.795 0.111,3.407 0.574,6.702 1.348,9.83 H 4.665 C 2.089,48.938 0,51.027 0,53.604 0,56.181 2.089,58.27 4.665,58.27 h 17.322 c 1.311,2.577 2.855,4.955 4.602,7.083 -6.1,4.571 -11.813,12.548 -14.584,16.745 -1.42,2.148 -0.829,5.042 1.32,6.463 0.792,0.523 1.686,0.773 2.568,0.773 1.514,0 2.999,-0.735 3.897,-2.092 4.624,-6.99 10.586,-13.596 13.746,-15.472 3.796,2.601 8.073,4.261 12.622,4.759 V 41.297 h 5.708 v 35.232 c 4.543,-0.498 8.813,-2.153 12.608,-4.748 3.195,1.89 9.146,8.483 13.76,15.461 0.898,1.356 2.383,2.092 3.896,2.092 0.883,0 1.776,-0.25 2.568,-0.773 2.148,-1.42 2.74,-4.312 1.32,-6.463 -2.774,-4.2 -8.473,-12.184 -14.579,-16.751 1.745,-2.127 3.286,-4.503 4.596,-7.077 h 17.322 c 2.575,0 4.665,-2.089 4.665,-4.666 0,-2.577 -2.088,-4.666 -4.665,-4.666 z"
   id="path2"
   style="fill:#000000;fill-opacity:1;stroke:#ffffff;stroke-width:2.17827;stroke-linecap:round;stroke-linejoin:round;stroke-dasharray:none;stroke-opacity:1" />
	</g>
</g>
</svg>
